<?xml version="1.0" standalone="no"?><!DOCTYPE svg PUBLIC "-//W3C//DTD SVG 1.1//EN" "http://www.w3.org/Graphics/SVG/1.1/DTD/svg11.dtd"><svg t="1664779235047" class="icon" viewBox="0 0 1024 1024" version="1.1" xmlns="http://www.w3.org/2000/svg" xmlns:xlink="http://www.w3.org/1999/xlink" width="256" height="256"><path d="M647.338667 638.464a3193.642667 3193.642667 0 0 1 44.586666-55.68C744.96 516.096 768 463.872 768 384A256 256 0 0 0 256 384c0 79.189333 23.04 131.242667 76.117333 198.229333A3120.554667 3120.554667 0 0 1 376.746667 638.293333C410.026667 682.965333 426.666667 721.365333 426.666667 768h170.666666c0-46.72 16.64-84.992 50.005334-129.536zM170.666667 384a341.333333 341.333333 0 1 1 682.666666 0c0 102.016-30.634667 171.434667-94.592 251.904-0.213333 0.213333-34.816 42.666667-43.093333 53.76-23.296 31.104-32.981333 53.333333-32.981333 78.336v85.333333H341.333333v-85.333333c0-25.045333-9.685333-47.445333-32.981333-78.72a3329.194667 3329.194667 0 0 0-43.093333-54.058667C201.216 554.496 170.666667 485.333333 170.666667 384zM341.333333 981.333333v-85.333333h341.333334v85.333333z"></path></svg>