<?xml version="1.0" standalone="no"?><!DOCTYPE svg PUBLIC "-//W3C//DTD SVG 1.1//EN" "http://www.w3.org/Graphics/SVG/1.1/DTD/svg11.dtd"><svg t="1664775986074" class="icon" viewBox="0 0 1024 1024" version="1.1" xmlns="http://www.w3.org/2000/svg" xmlns:xlink="http://www.w3.org/1999/xlink" width="256" height="256"><path d="M512 128c247.424 0 448 156.330667 448 349.226667 0 192.853333-200.576 349.184-448 349.184a576 576 0 0 1-73.685333-4.693334l-188.074667 123.008c-21.376 11.306667-28.928 10.069333-20.138667-17.621333l38.058667-156.928c-122.88-62.293333-204.16-170.24-204.16-292.949333C64 284.373333 264.576 128 512 128z m252.032 343.893333l62.72-60.757333a20.138667 20.138667 0 0 0-27.989333-28.928l-82.261334 79.616V396.032a20.138667 20.138667 0 0 0-40.277333 0v109.098667a20.096 20.096 0 0 0 0 9.472V576a20.138667 20.138667 0 0 0 40.277333 0v-58.154667l18.218667-17.621333 60.928 86.741333a20.138667 20.138667 0 1 0 32.981333-23.168l-64.597333-91.946666z m-126.208 82.090667h-62.293333V396.672a20.138667 20.138667 0 0 0-40.234667 0v177.450667c0 11.093333 8.96 20.138667 20.096 20.138666h82.432a20.138667 20.138667 0 1 0 0-40.277333z m-249.898667-46.592l29.696-72.832 27.221334 72.832H387.925333z m107.648 20.821333l0.085334-0.682666a20.010667 20.010667 0 0 0-5.418667-13.653334l-44.629333-119.466666a29.44 29.44 0 0 0-26.752-20.224 29.696 29.696 0 0 0-27.861334 19.072l-70.869333 173.866666a20.138667 20.138667 0 0 0 37.290667 15.232l14.08-34.688h88.32l12.757333 34.133334a20.138667 20.138667 0 1 0 37.717333-14.08l-14.72-39.509334zM353.834667 396.885333a20.138667 20.138667 0 0 0-20.096-20.138666H195.285333a20.138667 20.138667 0 1 0 0 40.277333h49.493334v159.402667a20.138667 20.138667 0 0 0 40.277333 0V417.024h48.64a20.138667 20.138667 0 0 0 20.138667-20.138667z"></path></svg>